<svg xmlns="http://www.w3.org/2000/svg" viewBox="0 0 244 170.67"><defs><style>.cls-1{fill:#2a6091;}.cls-2{fill:#d87539;fill-rule:evenodd;}.cls-3{fill:#fff;}</style></defs><g id="Capa_2" data-name="Capa 2"><g id="Capa_1-2" data-name="Capa 1"><rect class="cls-1" x="0.05" width="243.95" height="170.67"/><path class="cls-2" d="M231.47,139.63c-1.74,1.39-3.35,2.7-5.12,3.89-52.38,35.34-143.07,33.39-194.13-4-47.29-34.75-41.8-90.4,11.69-114.89C54.18,19.9,65.5,17.29,76.34,13.72l1.2,2.66-7.15,2.81C55.67,25.26,42.77,34,33.45,46.91,15.24,72.23,17,99.35,38.88,122.17c23.9,24.8,54.58,35.66,88.18,38.8,34.33,3.17,66.78-3.23,96.18-22a27.67,27.67,0,0,1,7.17-2.13Z"/><polygon class="cls-3" points="226.2 75.86 178.08 75.86 178.08 43.91 167.79 43.91 167.79 124.75 178.08 124.75 178.08 85.16 226.2 85.16 226.2 124.75 236.32 124.75 236.32 43.91 226.2 43.91 226.2 75.86"/><polygon class="cls-3" points="133.31 104.34 80.39 43.91 75.07 43.91 75.07 124.75 85.22 124.75 85.22 64.34 138.28 124.75 143.46 124.75 143.46 43.91 133.31 43.91 133.31 104.34"/></g></g></svg>